<?xml version="1.0" standalone="no"?>
<!DOCTYPE svg PUBLIC "-//W3C//DTD SVG 20010904//EN"
 "http://www.w3.org/TR/2001/REC-SVG-20010904/DTD/svg10.dtd">
<svg version="1.0" xmlns="http://www.w3.org/2000/svg"
 width="452.000000pt" height="452.000000pt" viewBox="0 0 452.000000 452.000000"
 preserveAspectRatio="xMidYMid meet">
<metadata>
Created by potrace 1.11, written by Peter Selinger 2001-2013
</metadata>
<g transform="translate(0.000000,452.000000) scale(0.100000,-0.100000)"
fill="#000000" stroke="none">
<path d="M2051 4413 c-279 -53 -489 -283 -508 -557 -11 -162 27 -288 137 -451
36 -55 124 -185 195 -290 70 -104 198 -293 283 -420 85 -126 159 -234 163
-239 4 -5 72 32 151 81 79 50 267 168 418 263 558 349 574 361 662 490 72 105
101 206 101 345 -2 289 -203 534 -502 610 -135 34 -309 20 -421 -34 l-36 -17
-62 57 c-152 140 -374 202 -581 162z"/>
<path d="M740 3644 c-242 -40 -429 -195 -506 -421 -50 -145 -39 -323 28 -457
l30 -60 -23 -19 c-167 -130 -260 -301 -262 -485 -3 -197 54 -335 193 -474 178
-176 435 -235 680 -156 87 28 195 90 486 277 22 14 199 125 391 246 l351 220
-112 165 c-62 91 -184 271 -271 400 -87 129 -178 264 -202 298 -25 35 -63 94
-85 130 -158 259 -415 383 -698 336z"/>
<path d="M3780 2978 c-120 -13 -227 -55 -325 -127 -41 -31 -324 -210 -855
-541 -47 -29 -91 -58 -98 -65 -10 -9 5 -36 69 -131 96 -139 409 -604 554 -819
76 -114 116 -162 167 -205 353 -296 899 -159 1042 262 49 148 42 319 -21 457
l-25 53 52 52 c237 237 233 623 -10 867 -114 114 -252 183 -395 195 -33 3 -64
7 -70 8 -5 1 -44 -2 -85 -6z"/>
<path d="M1780 1804 c-250 -157 -490 -306 -534 -331 -304 -177 -413 -528 -260
-837 106 -214 358 -363 599 -356 33 1 67 2 75 2 24 0 163 37 188 50 21 11 27
8 61 -28 137 -143 309 -213 511 -209 261 6 504 178 587 416 73 210 41 406
-100 607 -49 71 -216 316 -439 647 -48 72 -91 135 -95 140 -4 6 -34 49 -67 98
-32 48 -61 87 -65 87 -3 0 -211 -129 -461 -286z"/>
</g>
</svg>
