<?xml version="1.0" encoding="UTF-8" standalone="no"?>
<!-- Created with Inkscape (http://www.inkscape.org/) -->

<svg
   xmlns:dc="http://purl.org/dc/elements/1.1/"
   xmlns:cc="http://creativecommons.org/ns#"
   xmlns:rdf="http://www.w3.org/1999/02/22-rdf-syntax-ns#"
   xmlns:svg="http://www.w3.org/2000/svg"
   xmlns="http://www.w3.org/2000/svg"
   xmlns:sodipodi="http://sodipodi.sourceforge.net/DTD/sodipodi-0.dtd"
   xmlns:inkscape="http://www.inkscape.org/namespaces/inkscape"
   width="31.776913mm"
   height="31.759163mm"
   viewBox="0 0 31.776913 31.759163"
   version="1.1"
   id="svg8"
   inkscape:version="0.92.4 (5da689c313, 2019-01-14)"
   sodipodi:docname="front-section-new.svg">
  <defs
     id="defs2" />
  <sodipodi:namedview
     id="base"
     pagecolor="#ffffff"
     bordercolor="#666666"
     borderopacity="1.0"
     inkscape:pageopacity="0.0"
     inkscape:pageshadow="2"
     inkscape:zoom="1.979899"
     inkscape:cx="120.46388"
     inkscape:cy="27.603358"
     inkscape:document-units="mm"
     inkscape:current-layer="layer1"
     showgrid="false"
     inkscape:window-width="1536"
     inkscape:window-height="801"
     inkscape:window-x="-8"
     inkscape:window-y="-8"
     inkscape:window-maximized="1" />
  <metadata
     id="metadata5">
    <rdf:RDF>
      <cc:Work
         rdf:about="">
        <dc:format>image/svg+xml</dc:format>
        <dc:type
           rdf:resource="http://purl.org/dc/dcmitype/StillImage" />
        <dc:title></dc:title>
      </cc:Work>
    </rdf:RDF>
  </metadata>
  <g
     inkscape:label="Layer 1"
     inkscape:groupmode="layer"
     id="layer1"
     transform="translate(-65.040112,-154.09903)">
    <path
       inkscape:connector-curvature="0"
       id="path844"
       d="m 76.271132,185.24155 c -2.837687,-0.91951 -4.565687,-1.96694 -6.60218,-4.00193 -3.137795,-3.13548 -4.62884,-6.75766 -4.62884,-11.24479 0,-4.48632 1.490641,-8.10796 4.62884,-11.24616 3.138199,-3.1382 6.759838,-4.62884 11.24616,-4.62884 4.486322,0 8.107961,1.49064 11.24616,4.62884 3.138199,3.1382 4.62884,6.75984 4.62884,11.24616 0,4.48632 -1.490641,8.10796 -4.62884,11.24616 -3.174251,3.17425 -6.767437,4.63717 -11.340176,4.617 -2.050748,-0.009 -3.124389,-0.1545 -4.549964,-0.61644 z m 5.557606,-5.74151 c 0.466495,-1.03949 0.664414,-1.83396 0.560258,-2.24896 -0.193673,-0.77165 -0.944717,-0.86109 -0.944717,-0.1125 0,0.35278 -0.176389,0.52917 -0.529167,0.52917 -0.352778,0 -0.529167,-0.17639 -0.529167,-0.52917 0,-0.74859 -0.751044,-0.65915 -0.944717,0.1125 -0.160841,0.64085 1.068109,3.85625 1.473884,3.85625 0.105775,0 0.516907,-0.72328 0.913626,-1.60729 z"
       style="fill:#ccf0e5;stroke-width:0.26458332" />
    <path
       inkscape:connector-curvature="0"
       id="path842"
       d="m 77.308034,185.47005 c -2.517031,-0.54688 -5.609548,-2.28611 -7.595541,-4.27172 -6.193957,-6.19276 -6.193957,-16.26197 0,-22.45472 6.193958,-6.19277 16.265106,-6.19277 22.459063,0 6.193959,6.19275 6.193959,16.26196 0,22.45472 -3.841643,3.84091 -9.440479,5.45 -14.863522,4.27172 z m 4.54253,-5.6998 c 0.785772,-1.75059 0.819512,-2.98645 0.08534,-3.12567 -0.320868,-0.0608 -0.463807,0.0814 -0.463807,0.46147 0,0.37273 -0.170439,0.54939 -0.530065,0.54939 -0.359626,0 -0.530066,-0.17666 -0.530066,-0.54939 0,-0.8485 -0.908864,-0.53575 -1.010991,0.34789 -0.08308,0.71882 1.174753,3.91123 1.541057,3.91123 0.105955,0 0.514798,-0.71771 0.908539,-1.59492 z"
       style="fill:#8cdfc5;fill-opacity:1;stroke-width:0.26500708" />
    <path
       inkscape:connector-curvature="0"
       id="path836"
       d="m 74.164614,176.19922 c 0.214723,-2.01453 1.079745,-4.69615 1.894738,-5.87383 0.495875,-0.71654 0.660599,-1.29039 0.660599,-2.30135 0,-2.77789 1.397631,-6.15629 3.281509,-7.93217 1.163663,-1.09695 1.400269,-0.99717 2.971568,1.25307 1.335267,1.91223 1.922218,3.64171 2.116819,6.23732 0.105494,1.40711 0.310239,2.18582 0.74781,2.84417 0.82164,1.23622 1.667364,3.82296 1.869295,5.71746 0.167172,1.56841 0.167172,1.56841 -0.993378,0.79458 -1.425809,-0.9507 -2.610756,-1.26739 -2.610756,-0.69773 0,0.29894 -0.314919,0.39276 -1.31837,0.39276 -1.142586,0 -1.318368,0.069 -1.318368,0.51712 0,0.34475 -0.175783,0.51713 -0.527348,0.51713 -0.351566,0 -0.527348,-0.17238 -0.527348,-0.51713 0,-0.44817 -0.175783,-0.51712 -1.318369,-0.51712 -1.003451,0 -1.318369,-0.0938 -1.318369,-0.39276 0,-0.56966 -1.184948,-0.25297 -2.610757,0.69773 -1.16055,0.77383 -1.16055,0.77383 -0.999275,-0.73925 z"
       style="fill:#42ca97;fill-opacity:1;stroke-width:0.26110497" />
    <path
       inkscape:connector-curvature="0"
       id="path828"
       d="m 80.392604,177.43559 c 0,-0.45997 -0.180125,-0.53997 -1.215837,-0.53997 -0.944225,0 -1.215826,-0.0984 -1.215826,-0.44051 0,-0.66504 -1.961833,-0.31571 -3.100408,0.55208 -0.918686,0.7002 -0.918686,0.7002 -0.771872,-0.31314 0.28893,-1.99423 0.951752,-4.23716 1.65011,-5.58378 0.710061,-1.36918 0.710061,-1.36918 0.923067,0.25071 0.117149,0.89095 0.370981,2.16661 0.564064,2.83483 0.351058,1.21492 0.351058,1.21492 1.758875,1.29652 1.407827,0.0816 1.407827,0.0816 1.407827,-2.90231 0,-2.80394 0.03258,-2.98393 0.540362,-2.98393 0.507778,0 0.540373,0.17999 0.540373,2.98393 0,2.98392 0,2.98392 1.418468,2.90231 1.418467,-0.0816 1.418467,-0.0816 1.872858,-1.83649 0.249921,-0.96519 0.464735,-2.24087 0.477377,-2.83483 0.02298,-1.07992 0.02298,-1.07992 0.559101,-0.24389 0.754114,1.17599 1.592934,3.73046 1.798271,5.4763 0.17409,1.48007 0.17409,1.48007 -0.692078,0.86378 -1.129353,-0.80359 -3.002334,-1.09185 -3.002334,-0.46209 0,0.34211 -0.271611,0.44051 -1.215836,0.44051 -1.035702,0 -1.215827,0.08 -1.215827,0.53997 0,0.35998 -0.180124,0.53997 -0.540373,0.53997 -0.360248,0 -0.540362,-0.17999 -0.540362,-0.53997 z m -2.155273,-15.13121 c 0.672604,-1.31743 2.3529,-3.22763 2.839161,-3.22763 0.378027,0 1.937498,2.01401 2.665399,3.44228 0.44717,0.87746 0.44717,0.87746 -2.807475,0.87746 -3.254644,0 -3.254644,0 -2.697085,-1.09211 z"
       style="fill:#00aa80;fill-opacity:1;stroke-width:0.27008387" />
  </g>
</svg>
