<?xml version="1.0" encoding="UTF-8" standalone="no"?>
<!-- Created with Inkscape (http://www.inkscape.org/) -->

<svg
   xmlns:dc="http://purl.org/dc/elements/1.1/"
   xmlns:cc="http://creativecommons.org/ns#"
   xmlns:rdf="http://www.w3.org/1999/02/22-rdf-syntax-ns#"
   xmlns:svg="http://www.w3.org/2000/svg"
   xmlns="http://www.w3.org/2000/svg"
   xmlns:sodipodi="http://sodipodi.sourceforge.net/DTD/sodipodi-0.dtd"
   xmlns:inkscape="http://www.inkscape.org/namespaces/inkscape"
   width="31.749998mm"
   height="31.75mm"
   viewBox="0 0 31.749998 31.75"
   version="1.1"
   id="svg8"
   inkscape:version="0.92.4 (5da689c313, 2019-01-14)"
   sodipodi:docname="front-section-bonus.svg">
  <defs
     id="defs2" />
  <sodipodi:namedview
     id="base"
     pagecolor="#ffffff"
     bordercolor="#666666"
     borderopacity="1.0"
     inkscape:pageopacity="0.0"
     inkscape:pageshadow="2"
     inkscape:zoom="3.959798"
     inkscape:cx="42.833732"
     inkscape:cy="59.330586"
     inkscape:document-units="mm"
     inkscape:current-layer="layer1"
     showgrid="false"
     inkscape:window-width="1536"
     inkscape:window-height="801"
     inkscape:window-x="-8"
     inkscape:window-y="-8"
     inkscape:window-maximized="1" />
  <metadata
     id="metadata5">
    <rdf:RDF>
      <cc:Work
         rdf:about="">
        <dc:format>image/svg+xml</dc:format>
        <dc:type
           rdf:resource="http://purl.org/dc/dcmitype/StillImage" />
        <dc:title></dc:title>
      </cc:Work>
    </rdf:RDF>
  </metadata>
  <g
     inkscape:label="Layer 1"
     inkscape:groupmode="layer"
     id="layer1"
     transform="translate(-113.78241,-135.13958)">
    <g
       id="g966"
       transform="matrix(1.0016982,0,0,1.0015052,-0.1932291,-0.25119831)">
      <path
         sodipodi:nodetypes="ssssssccccccccccccccc"
         style="fill:#8bdec4;stroke-width:0.26458332"
         d="m 126.00267,166.51117 c -2.51277,-0.54606 -5.60004,-2.28267 -7.58267,-4.2653 -6.18345,-6.18345 -6.18345,-16.23753 0,-22.42098 6.18346,-6.18346 16.23753,-6.18346 22.42099,0 6.18346,6.18345 6.18346,16.23753 0,22.42098 -3.83513,3.83513 -9.42448,5.4418 -14.83832,4.2653 z m 3.15365,-16.19094 0.47418,-0.97974 0.47417,0.97974 1.00334,0.97973 h 4.43556 3.90639 l -0.87483,-1.05356 -0.87484,-1.05356 h -8.06979 -8.0698 l -0.87483,1.05356 -0.87484,1.05356 h 3.90639 4.43556 z"
         id="path846"
         inkscape:connector-curvature="0" />
      <path
         sodipodi:nodetypes="ccccccccccccccc"
         style="fill:#5ccfae;stroke-width:0.26458332"
         d="m 121.693,155.401 v -4.10104 l 3.10885,1e-5 3.10885,2e-5 0.86124,-0.9922 0.86124,-0.9922 0.88659,0.99219 0.8866,0.99218 h 3.08081 3.08082 v 4.10104 4.10105 h -7.9375 -7.9375 z"
         id="path844"
         inkscape:connector-curvature="0" />
      <path
         sodipodi:nodetypes="ccccccccccccccc"
         style="fill:#2dc192;stroke-width:0.26458332"
         d="m 121.693,155.401 v -4.10104 h 3.14759 3.14759 l 0.85728,-0.97639 0.85728,-0.97639 0.78329,0.97639 0.78329,0.97639 h 3.14934 3.14934 v 4.10104 4.10105 h -7.9375 -7.9375 z"
         id="path842"
         inkscape:connector-curvature="0" />
      <path
         sodipodi:nodetypes="cccccccccccssssssssss"
         style="fill:#01b184;stroke-width:0.26458332"
         d="m 129.6305,154.46576 v -5.03629 l 0.82115,0.93525 0.82116,0.93524 h 3.14759 3.1476 v 4.10104 4.10105 h -3.96875 -3.96875 z m 5.29166,0.009 c 0,-0.15119 -0.79375,-0.26458 -1.85208,-0.26458 -1.05833,0 -1.85208,0.11339 -1.85208,0.26458 0,0.15119 0.79375,0.26459 1.85208,0.26459 1.05833,0 1.85208,-0.1134 1.85208,-0.26459 z m 0.79375,-1.05833 c 0,-0.15564 -0.92604,-0.26458 -2.24896,-0.26458 -1.32291,0 -2.24895,0.10894 -2.24895,0.26458 0,0.15564 0.92604,0.26458 2.24895,0.26458 1.32292,0 2.24896,-0.10894 2.24896,-0.26458 z"
         id="path840"
         inkscape:connector-curvature="0" />
      <path
         inkscape:connector-curvature="0"
         id="path830"
         d="m 127.10805,147.43986 c -0.0424,0.007 -0.10829,0.0109 -0.14654,0.009 -0.0843,-0.004 -0.22283,-0.034 -0.25733,-0.056 l -0.0252,-0.0162 -0.0169,0.008 c -0.009,0.004 -0.0295,0.0233 -0.0465,0.0391 -0.0393,0.042 -0.14885,0.11809 -0.20825,0.14485 -0.0259,0.0125 -0.0842,0.0298 -0.12866,0.0401 l -0.0809,0.0186 -0.11112,-0.004 -0.11116,-0.004 -0.10664,-0.0405 -0.10665,-0.0405 -0.0768,-0.0635 -0.077,-0.0636 -0.0477,-0.0654 -0.0477,-0.0654 -0.0299,-0.0793 -0.0299,-0.0792 -0.009,-0.0863 -0.008,-0.0863 0.0111,-0.078 0.0111,-0.078 0.0318,-0.0779 0.0318,-0.0779 0.0535,-0.0743 c 0.0294,-0.0409 0.19426,-0.28523 0.36631,-0.54302 0.17206,-0.25779 0.31712,-0.47064 0.32237,-0.473 0.005,-0.002 0.22793,0.13085 0.49485,0.29599 0.26691,0.16516 0.51629,0.31765 0.55416,0.33888 0.0379,0.0213 0.0968,0.062 0.13085,0.0906 l 0.062,0.0521 0.0486,0.0652 0.0487,0.0652 0.0339,0.0901 0.0338,0.09 0.006,0.0645 c 0.003,0.0354 0.003,0.0976 5.7e-4,0.13832 l -0.005,0.0738 -0.0351,0.0916 -0.0352,0.0915 -0.0394,0.0562 c -0.0217,0.0308 -0.0662,0.0816 -0.0988,0.11293 l -0.0594,0.0568 -0.10953,0.0528 -0.10953,0.0527 z m 0.99012,-1.3953 c -0.0769,0.0208 -0.15132,0.0273 -0.24798,0.0216 l -0.0806,-0.005 -0.0953,-0.0321 -0.0953,-0.0321 -0.0788,-0.0533 c -0.0434,-0.0294 -0.29777,-0.18871 -0.5654,-0.35421 l -0.48661,-0.30087 0.008,-0.0178 c 0.004,-0.01 0.13857,-0.21356 0.29862,-0.45289 0.16003,-0.23934 0.31396,-0.47366 0.34202,-0.52072 0.0281,-0.0471 0.073,-0.11059 0.0999,-0.14091 l 0.0488,-0.0554 0.0734,-0.0526 0.0734,-0.0526 0.08,-0.0292 0.08,-0.0292 0.0768,-0.01 c 0.0422,-0.005 0.11188,-0.007 0.15482,-0.003 l 0.0782,0.006 0.11238,0.0434 0.1124,0.0434 0.068,0.0563 0.068,0.0563 0.0462,0.0604 0.0461,0.0604 0.0364,0.0937 0.0364,0.0937 0.007,0.0722 c 0.009,0.0938 -0.004,0.19633 -0.0362,0.28366 l -0.0255,0.0699 0.007,0.0141 c 0.003,0.007 0.022,0.0268 0.0412,0.0422 0.0192,0.0153 0.0546,0.0527 0.0789,0.0828 l 0.0441,0.0548 0.0429,0.10815 0.0429,0.10814 0.006,0.071 0.006,0.071 -0.0156,0.0922 -0.0156,0.0922 -0.0304,0.0663 -0.0304,0.0664 -0.0554,0.0701 -0.0554,0.0701 -0.0525,0.042 c -0.0289,0.023 -0.0835,0.0583 -0.12129,0.0781 l -0.0688,0.036 z m -3.24872,0.74705 c -0.0928,0.0193 -0.18103,0.0225 -0.2637,0.01 l -0.0728,-0.0111 -0.0926,-0.0387 -0.0926,-0.0387 -0.0583,-0.0452 -0.0582,-0.0452 -0.0525,-0.0659 -0.0525,-0.0659 -0.0328,-0.0731 -0.0328,-0.0731 -0.013,-0.0672 -0.013,-0.0673 0.003,-0.0729 c 10e-4,-0.0402 0.0102,-0.10408 0.0193,-0.142 l 0.0166,-0.0691 0.0361,-0.0686 0.036,-0.0687 -0.0526,-0.0427 c -0.0289,-0.0234 -0.0724,-0.0672 -0.0965,-0.0972 l -0.044,-0.0545 -0.0367,-0.0819 -0.0367,-0.0819 -0.0118,-0.07 -0.0118,-0.07 0.004,-0.083 0.005,-0.083 0.0409,-0.10712 0.0409,-0.10713 0.0641,-0.0765 0.0641,-0.0765 0.0642,-0.047 0.0642,-0.047 0.0939,-0.0359 0.0939,-0.0359 0.0896,-0.0103 0.0896,-0.0103 0.0919,0.0145 0.0919,0.0145 0.0745,0.0322 c 0.041,0.0178 0.11052,0.0565 0.15446,0.0861 0.044,0.0296 0.30169,0.19091 0.57277,0.35861 0.27108,0.16771 0.49226,0.30621 0.4915,0.30782 -8.1e-4,10e-4 -0.16963,0.25497 -0.37526,0.56307 l -0.37388,0.56018 -0.0546,0.0625 -0.0546,0.0625 -0.0597,0.0437 -0.0598,0.0437 -0.0677,0.0298 -0.0677,0.0298 -0.0635,0.0132 z m 0.77189,-1.99346 -0.56053,-0.34664 -0.0513,-0.0474 c -0.0282,-0.0261 -0.068,-0.0686 -0.0884,-0.0944 l -0.0371,-0.0471 -0.0386,-0.0869 -0.0386,-0.0869 -0.009,-0.0656 c -0.005,-0.0361 -0.007,-0.10303 -0.004,-0.14875 l 0.005,-0.0832 0.035,-0.091 0.035,-0.091 0.0398,-0.0564 c 0.0219,-0.031 0.0666,-0.0819 0.0994,-0.11289 l 0.0595,-0.0566 0.0954,-0.0488 0.0954,-0.0488 0.0811,-0.0167 0.0811,-0.0168 0.0947,0.004 0.0947,0.004 0.0882,0.0302 0.0882,0.0302 0.0382,-0.0416 c 0.021,-0.023 0.0628,-0.0603 0.0927,-0.0834 l 0.0546,-0.0417 0.0724,-0.0322 0.0724,-0.0322 0.0736,-0.0159 0.0735,-0.016 0.0823,0.002 c 0.0452,10e-4 0.11833,0.0102 0.1624,0.0204 l 0.08,0.0183 0.0716,0.0395 c 0.095,0.0524 0.15044,0.0984 0.21255,0.17639 l 0.0514,0.0644 0.0308,0.0693 0.0308,0.0693 0.0145,0.0839 0.0145,0.0839 -0.007,0.0794 -0.007,0.0795 -0.0385,0.10056 -0.0384,0.10066 -0.36464,0.54655 c -0.20055,0.30062 -0.36777,0.54797 -0.3716,0.54969 -0.004,0.002 -0.25921,-0.15285 -0.56751,-0.34348 z"
         style="fill:#01b184;fill-opacity:1;stroke-width:0.01056505" />
      <rect
         y="152.9772"
         x="131.22208"
         height="0.69905913"
         width="4.5883312"
         id="rect922"
         style="opacity:1;fill:#2dc192;fill-opacity:1;stroke:none;stroke-width:0.14595023;stroke-linejoin:bevel;stroke-miterlimit:4;stroke-dasharray:none;stroke-dashoffset:0;stroke-opacity:1" />
      <rect
         y="154.12506"
         x="131.22208"
         height="0.69905913"
         width="3.7615082"
         id="rect922-9"
         style="opacity:1;fill:#2dc192;fill-opacity:1;stroke:none;stroke-width:0.13214734;stroke-linejoin:bevel;stroke-miterlimit:4;stroke-dasharray:none;stroke-dashoffset:0;stroke-opacity:1" />
      <path
         inkscape:connector-curvature="0"
         id="path830-1"
         d="m 134.25894,145.46492 c -0.0422,-0.008 -0.10587,-0.0252 -0.14141,-0.0395 -0.0784,-0.0312 -0.19933,-0.10524 -0.22469,-0.1374 l -0.0186,-0.0235 -0.0185,0.002 c -0.0102,10e-4 -0.0355,0.0123 -0.0568,0.0217 -0.0508,0.0267 -0.17937,0.0627 -0.24425,0.0685 -0.0285,0.003 -0.0893,5.1e-4 -0.13469,-0.004 l -0.0825,-0.009 -0.10377,-0.0398 -0.10377,-0.0399 -0.0874,-0.0733 -0.0875,-0.0733 -0.0518,-0.0852 -0.0519,-0.0853 -0.0236,-0.0775 -0.0236,-0.0775 -0.002,-0.0847 -0.002,-0.0846 0.0203,-0.0843 0.0204,-0.0843 0.0361,-0.0701 0.0361,-0.0701 0.0555,-0.0631 0.0555,-0.0631 0.0749,-0.0526 c 0.0412,-0.029 0.27713,-0.20566 0.52427,-0.39269 0.24714,-0.18702 0.45403,-0.34047 0.45976,-0.34097 0.005,-3.9e-4 0.17236,0.19841 0.37028,0.44202 0.1979,0.24362 0.38342,0.46953 0.41222,0.502 0.0288,0.0325 0.071,0.0904 0.0939,0.12858 l 0.0414,0.0696 0.0245,0.0775 0.0246,0.0775 0.002,0.0962 0.002,0.0961 -0.016,0.0627 c -0.009,0.0345 -0.0289,0.0932 -0.0449,0.13084 l -0.0289,0.0681 -0.0633,0.075 -0.0633,0.0749 -0.0556,0.0401 c -0.0306,0.022 -0.0893,0.0554 -0.13042,0.0742 l -0.0748,0.0341 -0.12077,0.0139 -0.12078,0.0139 z m 1.39327,-0.99298 c -0.0795,-0.006 -0.1519,-0.0239 -0.24135,-0.061 l -0.0747,-0.031 -0.0795,-0.0616 -0.0795,-0.0616 -0.0569,-0.0762 c -0.0313,-0.042 -0.21933,-0.27601 -0.41781,-0.52018 l -0.36089,-0.44393 0.013,-0.0143 c 0.007,-0.008 0.20099,-0.15624 0.43073,-0.32976 0.22974,-0.17355 0.45205,-0.34436 0.494,-0.37961 0.042,-0.0352 0.10523,-0.0805 0.14062,-0.10031 l 0.0643,-0.0363 0.0866,-0.0256 0.0866,-0.0256 0.0851,-0.001 0.0851,-10e-4 0.0757,0.0161 c 0.0416,0.009 0.10791,0.0303 0.14736,0.0476 l 0.0717,0.0316 0.0919,0.0779 0.0919,0.0779 0.0457,0.0755 0.0458,0.0755 0.0237,0.0722 0.0238,0.0722 0.004,0.10046 0.004,0.10047 -0.0173,0.0704 c -0.0225,0.0915 -0.0686,0.18403 -0.12733,0.25605 l -0.0471,0.0576 0.002,0.0155 c 6.8e-4,0.008 0.0119,0.0326 0.0251,0.0534 0.0132,0.0208 0.0343,0.0677 0.0474,0.10411 l 0.0237,0.0662 0.005,0.11624 0.005,0.11622 -0.0177,0.069 -0.0177,0.069 -0.045,0.082 -0.045,0.082 -0.0505,0.0527 -0.0505,0.0528 -0.0754,0.0481 -0.0753,0.0481 -0.0634,0.0224 c -0.0349,0.0122 -0.098,0.0277 -0.14019,0.0339 l -0.0768,0.0114 z m -3.31393,-0.36074 c -0.094,-0.0122 -0.1784,-0.0381 -0.25228,-0.0774 l -0.0652,-0.0344 -0.0748,-0.0669 -0.0748,-0.067 -0.0402,-0.0619 -0.0401,-0.0618 -0.028,-0.0795 -0.0279,-0.0795 -0.007,-0.0799 -0.007,-0.0799 0.01,-0.0678 0.01,-0.0678 0.0265,-0.0679 c 0.0146,-0.0374 0.0438,-0.095 0.0649,-0.12778 l 0.0383,-0.0599 0.0567,-0.053 0.0566,-0.0531 -0.0356,-0.0576 c -0.0195,-0.0316 -0.0463,-0.0873 -0.0593,-0.12351 l -0.0236,-0.0659 -0.008,-0.0894 -0.008,-0.0894 0.0118,-0.07 0.0118,-0.07 0.0316,-0.077 0.0315,-0.077 0.0737,-0.0878 0.0738,-0.0878 0.0857,-0.0512 0.0857,-0.0512 0.0761,-0.0233 0.0761,-0.0233 0.10054,-0.003 0.10053,-0.003 0.0879,0.0197 0.0879,0.0197 0.082,0.0438 0.082,0.0438 0.0598,0.0549 c 0.0329,0.0303 0.0859,0.0896 0.11764,0.13199 0.0319,0.0424 0.2223,0.27936 0.42332,0.52675 0.20102,0.2474 0.36448,0.45083 0.36322,0.4521 -8.5e-4,0.001 -0.24392,0.18516 -0.53929,0.40869 l -0.53704,0.40642 -0.0722,0.0411 -0.0721,0.0411 -0.0708,0.0217 -0.0708,0.0216 -0.0737,0.006 -0.0737,0.006 -0.0643,-0.008 z m 1.38347,-1.62963 -0.41569,-0.51142 -0.0329,-0.0616 c -0.0181,-0.0339 -0.0417,-0.0871 -0.0525,-0.11824 l -0.0196,-0.0566 -0.008,-0.0948 -0.008,-0.0948 0.0131,-0.0648 c 0.007,-0.0356 0.0275,-0.0995 0.045,-0.14182 l 0.0319,-0.077 0.063,-0.0744 0.063,-0.0744 0.0561,-0.0403 c 0.0308,-0.0221 0.0897,-0.0555 0.13093,-0.074 l 0.0748,-0.0339 0.10618,-0.0148 0.10617,-0.0148 0.0821,0.0109 0.0821,0.0108 0.0882,0.0349 0.0882,0.0348 0.0734,0.0575 0.0734,0.0575 0.0498,-0.0268 c 0.0274,-0.0148 0.0791,-0.0364 0.11499,-0.0484 l 0.0653,-0.0215 0.079,-0.007 0.079,-0.007 0.0747,0.009 0.0747,0.009 0.0771,0.0289 c 0.0424,0.0159 0.10841,0.0485 0.1467,0.0726 l 0.0695,0.0436 0.0546,0.0609 c 0.0725,0.0807 0.10977,0.14234 0.14287,0.23638 l 0.0274,0.0777 0.006,0.0756 0.006,0.0756 -0.0138,0.084 -0.0138,0.084 -0.0326,0.0728 -0.0325,0.0728 -0.0694,0.0824 -0.0694,0.0825 -0.52384,0.39658 c -0.28811,0.21813 -0.52726,0.39689 -0.53144,0.39725 -0.005,4.6e-4 -0.19468,-0.22946 -0.42331,-0.51073 z"
         style="fill:#01b184;fill-opacity:1;stroke-width:0.01056505" />
    </g>
  </g>
</svg>
