<?xml version="1.0" encoding="UTF-8" standalone="no"?>
<!-- Created with Inkscape (http://www.inkscape.org/) -->

<svg
   xmlns:dc="http://purl.org/dc/elements/1.1/"
   xmlns:cc="http://creativecommons.org/ns#"
   xmlns:rdf="http://www.w3.org/1999/02/22-rdf-syntax-ns#"
   xmlns:svg="http://www.w3.org/2000/svg"
   xmlns="http://www.w3.org/2000/svg"
   xmlns:sodipodi="http://sodipodi.sourceforge.net/DTD/sodipodi-0.dtd"
   xmlns:inkscape="http://www.inkscape.org/namespaces/inkscape"
   width="31.75mm"
   height="31.750002mm"
   viewBox="0 0 31.75 31.750002"
   version="1.1"
   id="svg8"
   inkscape:version="0.92.4 (5da689c313, 2019-01-14)"
   sodipodi:docname="front-section-mobile.svg">
  <defs
     id="defs2" />
  <sodipodi:namedview
     id="base"
     pagecolor="#ffffff"
     bordercolor="#666666"
     borderopacity="1.0"
     inkscape:pageopacity="0.0"
     inkscape:pageshadow="2"
     inkscape:zoom="2.8"
     inkscape:cx="66.431596"
     inkscape:cy="56.467707"
     inkscape:document-units="mm"
     inkscape:current-layer="layer1"
     showgrid="false"
     inkscape:window-width="1536"
     inkscape:window-height="801"
     inkscape:window-x="-8"
     inkscape:window-y="-8"
     inkscape:window-maximized="1" />
  <metadata
     id="metadata5">
    <rdf:RDF>
      <cc:Work
         rdf:about="">
        <dc:format>image/svg+xml</dc:format>
        <dc:type
           rdf:resource="http://purl.org/dc/dcmitype/StillImage" />
        <dc:title></dc:title>
      </cc:Work>
    </rdf:RDF>
  </metadata>
  <g
     inkscape:label="Layer 1"
     inkscape:groupmode="layer"
     id="layer1"
     transform="translate(-63.349555,-176.79112)">
    <g
       id="g1014"
       transform="matrix(1.0042109,0,0,1.0044645,13.958175,-21.199958)">
      <path
         style="fill:#8cdfc5;fill-opacity:1;stroke-width:0.26458332"
         d="m 61.285607,228.3885 c -7.561331,-1.91775 -12.455209,-8.51322 -12.081316,-16.28195 0.321098,-6.67175 4.544898,-12.25627 10.826156,-14.31387 2.77435,-0.90881 7.18857,-0.90881 9.96292,0 4.73332,1.55053 8.57563,5.39284 10.12616,10.12616 0.90881,2.77435 0.90881,7.18857 0,9.96292 -1.52504,4.65551 -5.18429,8.38001 -9.84748,10.02307 -2.40876,0.84872 -6.64761,1.07686 -8.98644,0.48367 z m 9.00766,-5.48392 c 0.29671,-0.31848 0.53947,-0.64591 0.53947,-0.72761 0,-0.0817 -2.61937,-0.14854 -5.82083,-0.14854 -3.20146,0 -5.82084,0.0668 -5.82084,0.14854 0,0.0817 0.24277,0.40913 0.53948,0.72761 0.5162,0.55408 0.74401,0.57905 5.28136,0.57905 4.53735,0 4.76515,-0.025 5.28136,-0.57905 z m 0.53947,-19.28095 c 0,-0.0817 -0.24276,-0.40913 -0.53947,-0.72761 -0.51621,-0.55408 -0.74401,-0.57905 -5.28136,-0.57905 -4.53735,0 -4.76516,0.025 -5.28136,0.57905 -0.29671,0.31848 -0.53948,0.64591 -0.53948,0.72761 0,0.0817 2.61938,0.14854 5.82084,0.14854 3.20146,0 5.82083,-0.0668 5.82083,-0.14854 z m -2.64583,-0.64521 c 0,-0.21828 0.17859,-0.39687 0.39687,-0.39687 0.21828,0 0.39688,0.17859 0.39688,0.39687 0,0.21829 -0.1786,0.39688 -0.39688,0.39688 -0.21828,0 -0.39687,-0.17859 -0.39687,-0.39688 z m -3.90261,-0.0572 c 0.40019,-0.0606 1.05503,-0.0606 1.45521,0 0.40018,0.0606 0.0728,0.11022 -0.7276,0.11022 -0.80037,0 -1.12779,-0.0496 -0.72761,-0.11022 z"
         id="path892"
         inkscape:connector-curvature="0" />
      <rect
         y="203.63986"
         x="59.194603"
         height="15.34584"
         width="11.641666"
         id="rect972"
         style="opacity:1;fill:#00b285;fill-opacity:1;stroke:none;stroke-width:0.26564765;stroke-miterlimit:4;stroke-dasharray:0.26564767, 0.79694299;stroke-dashoffset:0;stroke-opacity:1" />
      <rect
         y="218.8846"
         x="59.194603"
         height="3.2810254"
         width="11.641666"
         id="rect974"
         style="opacity:1;fill:#2ec293;fill-opacity:1;stroke:none;stroke-width:0.24829835;stroke-miterlimit:4;stroke-dasharray:0.24829834, 0.74489503;stroke-dashoffset:0;stroke-opacity:1" />
      <path
         inkscape:connector-curvature="0"
         id="path830"
         d="m 64.878178,213.49643 c -0.05084,-0.0171 -0.126343,-0.0507 -0.167713,-0.0748 -0.09124,-0.053 -0.227286,-0.16678 -0.252763,-0.21121 l -0.01861,-0.0324 -0.02327,-0.002 c -0.01277,-6.4e-4 -0.04618,0.008 -0.07426,0.0165 -0.06784,0.0239 -0.233401,0.0447 -0.314755,0.0398 -0.03595,-0.002 -0.110559,-0.0157 -0.165826,-0.0301 l -0.100461,-0.0262 -0.121116,-0.0684 -0.121116,-0.0684 -0.09473,-0.10676 -0.09474,-0.10676 -0.04838,-0.11494 -0.04838,-0.11495 -0.01497,-0.10018 -0.01497,-0.10016 0.01277,-0.10514 0.01277,-0.10514 0.0406,-0.10054 0.0406,-0.10057 0.05751,-0.08 0.05751,-0.08 0.08036,-0.0678 0.08036,-0.0678 0.102347,-0.0514 c 0.05634,-0.0283 0.380595,-0.2036 0.720657,-0.38965 0.340077,-0.18604 0.624204,-0.33792 0.631393,-0.33749 0.0068,4.3e-4 0.176832,0.27709 0.376992,0.6148 0.200152,0.33772 0.38822,0.65125 0.417907,0.69672 0.02965,0.0455 0.07135,0.12479 0.09247,0.17628 l 0.03855,0.0936 0.01621,0.10046 0.01631,0.10047 -0.01464,0.11939 -0.01473,0.11937 -0.03122,0.0747 c -0.01705,0.041 -0.05291,0.11016 -0.0795,0.15363 l -0.04827,0.079 -0.09201,0.0812 -0.09201,0.0812 -0.07626,0.0394 c -0.04188,0.0217 -0.120647,0.0522 -0.174974,0.0678 l -0.09879,0.0284 -0.151964,-0.006 -0.151955,-0.006 z m 1.905946,-0.97288 c -0.09732,-0.0214 -0.183536,-0.0574 -0.287406,-0.11966 l -0.08663,-0.052 -0.0871,-0.0908 -0.08701,-0.0908 -0.05643,-0.10479 c -0.03104,-0.0576 -0.22071,-0.38173 -0.421481,-0.72022 l -0.365039,-0.61544 0.01878,-0.0152 c 0.01032,-0.008 0.277329,-0.15642 0.593412,-0.32896 0.316065,-0.17255 0.622447,-0.34309 0.680839,-0.379 0.05837,-0.036 0.144936,-0.0802 0.192367,-0.0984 l 0.08626,-0.0332 0.111773,-0.0157 0.111773,-0.0157 0.105584,0.0139 0.105564,0.014 0.09071,0.0337 c 0.04976,0.0186 0.127951,0.0573 0.173585,0.0859 l 0.08293,0.0522 0.09944,0.11312 0.09945,0.11314 0.04281,0.10183 0.04281,0.10181 0.01622,0.0936 0.01612,0.0936 -0.0139,0.12493 -0.01399,0.12492 -0.03438,0.084 c -0.04466,0.10903 -0.118565,0.2151 -0.204505,0.29342 l -0.06875,0.0626 -0.0019,0.0195 c -6.3e-4,0.0107 0.0093,0.0424 0.02131,0.0707 0.01232,0.0281 0.03002,0.0901 0.03947,0.13751 l 0.01714,0.0863 -0.0151,0.14473 -0.0151,0.14469 -0.03447,0.0822 -0.03447,0.082 -0.0707,0.0932 -0.0707,0.0932 -0.07209,0.056 -0.07209,0.056 -0.102006,0.0456 -0.101998,0.0456 -0.08256,0.0162 c -0.0454,0.009 -0.126274,0.0162 -0.179673,0.0162 l -0.09707,6e-5 z m -4.033801,-1.05435 c -0.114019,-0.0323 -0.213709,-0.0798 -0.29793,-0.14202 l -0.07426,-0.0546 -0.08027,-0.0965 -0.08027,-0.0965 -0.03831,-0.084 -0.03831,-0.0839 -0.01996,-0.10346 -0.01996,-0.10342 0.0059,-0.10011 0.0059,-0.1001 0.02454,-0.082 0.02461,-0.082 0.04525,-0.0792 c 0.02495,-0.0436 0.07164,-0.10937 0.1037,-0.1462 l 0.05844,-0.0671 0.07976,-0.0552 0.07976,-0.0553 -0.03358,-0.0777 c -0.01844,-0.0427 -0.04127,-0.11638 -0.05067,-0.16369 l -0.01717,-0.086 0.0068,-0.1121 0.0068,-0.11213 0.0274,-0.0844 0.0274,-0.0844 0.05312,-0.0895 0.05311,-0.0895 0.107371,-0.0951 0.10738,-0.095 0.115423,-0.0477 0.115415,-0.0477 0.09839,-0.0149 0.09839,-0.0148 0.124888,0.0146 0.12488,0.0146 0.105214,0.0404 0.105206,0.0405 0.09344,0.0692 0.09341,0.0693 0.06395,0.079 c 0.0351,0.0435 0.08976,0.12668 0.121353,0.18488 0.03163,0.0583 0.223783,0.38641 0.427081,0.72936 0.203298,0.34296 0.368202,0.62464 0.366434,0.62598 -0.0017,0.002 -0.335756,0.18432 -0.742207,0.40667 l -0.738994,0.4043 -0.09676,0.0376 -0.09676,0.0376 -0.09155,0.0138 -0.09156,0.0138 -0.09229,-0.006 -0.09231,-0.006 -0.07807,-0.0221 z m 2.010638,-1.76233 -0.420458,-0.70901 -0.02952,-0.0823 c -0.01615,-0.0452 -0.0357,-0.11542 -0.0433,-0.15591 l -0.01387,-0.0737 0.0076,-0.11867 0.0076,-0.11871 0.02816,-0.0778 c 0.01548,-0.0428 0.05228,-0.11801 0.08171,-0.16721 l 0.05363,-0.0895 0.09155,-0.0806 0.09155,-0.0806 0.0768,-0.0395 c 0.0422,-0.0217 0.121226,-0.0521 0.175554,-0.0676 l 0.09878,-0.0282 0.134074,0.002 0.134075,0.002 0.0996,0.0284 0.09959,0.0284 0.102729,0.0593 0.102721,0.0593 0.08024,0.0846 0.08024,0.0846 0.06653,-0.0241 c 0.03669,-0.0133 0.104555,-0.0306 0.151125,-0.0387 l 0.08469,-0.0146 0.09893,0.006 0.09893,0.006 0.0908,0.0249 0.0908,0.0249 0.09006,0.0498 c 0.04957,0.0274 0.125218,0.0799 0.168202,0.11664 l 0.07811,0.0667 0.05643,0.0853 c 0.07487,0.11312 0.109744,0.19624 0.13339,0.31865 l 0.01964,0.10129 -0.0065,0.0947 -0.0065,0.0947 -0.03252,0.10143 -0.03252,0.10143 -0.05356,0.0842 -0.05356,0.0842 -0.100913,0.0893 -0.100914,0.0893 -0.720858,0.39452 c -0.396473,0.21701 -0.725153,0.39429 -0.730396,0.39398 -0.0059,-3.6e-4 -0.198739,-0.31961 -0.430001,-0.70956 z"
         style="fill:#a4e6d0;fill-opacity:1;stroke-width:0.013214" />
      <rect
         y="202.85036"
         x="64.095337"
         height="0.26981395"
         width="1.9087836"
         id="rect987"
         style="opacity:1;fill:#00b285;fill-opacity:1;stroke:none;stroke-width:0.26499999;stroke-miterlimit:4;stroke-dasharray:0.26499998, 0.79499995;stroke-dashoffset:0;stroke-opacity:1" />
      <circle
         r="0.38419995"
         cy="202.98795"
         cx="68.588043"
         id="path989"
         style="opacity:1;fill:#00b285;fill-opacity:1;stroke:none;stroke-width:0.26499999;stroke-miterlimit:4;stroke-dasharray:0.26499998, 0.79499995;stroke-dashoffset:0;stroke-opacity:1" />
      <rect
         y="219.88611"
         x="64.417862"
         height="1.1594741"
         width="1.1951466"
         id="rect991"
         style="opacity:1;fill:none;fill-opacity:1;stroke:#a2e6d0;stroke-width:0.18877475;stroke-linejoin:bevel;stroke-miterlimit:4;stroke-dasharray:none;stroke-dashoffset:0;stroke-opacity:1" />
    </g>
  </g>
</svg>
