<?xml version="1.0" encoding="UTF-8" standalone="no"?>
<!-- Created with Inkscape (http://www.inkscape.org/) -->

<svg
   xmlns:dc="http://purl.org/dc/elements/1.1/"
   xmlns:cc="http://creativecommons.org/ns#"
   xmlns:rdf="http://www.w3.org/1999/02/22-rdf-syntax-ns#"
   xmlns:svg="http://www.w3.org/2000/svg"
   xmlns="http://www.w3.org/2000/svg"
   xmlns:xlink="http://www.w3.org/1999/xlink"
   xmlns:sodipodi="http://sodipodi.sourceforge.net/DTD/sodipodi-0.dtd"
   xmlns:inkscape="http://www.inkscape.org/namespaces/inkscape"
   width="47.575092mm"
   height="12.96752mm"
   viewBox="0 0 47.575092 12.96752"
   version="1.1"
   id="svg8"
   inkscape:version="0.92.2 (5c3e80d, 2017-08-06)"
   sodipodi:docname="logo.svg">
  <defs
     id="defs2">
    <linearGradient
       inkscape:collect="always"
       id="linearGradient920">
      <stop
         style="stop-color:#4c9e49;stop-opacity:1"
         offset="0"
         id="stop916" />
      <stop
         style="stop-color:#04d56b;stop-opacity:1"
         offset="1"
         id="stop918" />
    </linearGradient>
    <linearGradient
       inkscape:collect="always"
       xlink:href="#linearGradient920"
       id="linearGradient922"
       x1="53.136948"
       y1="159.09175"
       x2="93.970062"
       y2="159.09175"
       gradientUnits="userSpaceOnUse" />
    <linearGradient
       inkscape:collect="always"
       xlink:href="#linearGradient920"
       id="linearGradient929"
       gradientUnits="userSpaceOnUse"
       x1="53.136948"
       y1="159.09175"
       x2="93.970062"
       y2="159.09175" />
    <linearGradient
       inkscape:collect="always"
       xlink:href="#linearGradient920"
       id="linearGradient931"
       gradientUnits="userSpaceOnUse"
       x1="53.136948"
       y1="159.09175"
       x2="93.970062"
       y2="159.09175" />
    <linearGradient
       inkscape:collect="always"
       xlink:href="#linearGradient920"
       id="linearGradient933"
       gradientUnits="userSpaceOnUse"
       x1="53.136948"
       y1="159.09175"
       x2="93.970062"
       y2="159.09175" />
    <linearGradient
       inkscape:collect="always"
       xlink:href="#linearGradient920"
       id="linearGradient935"
       gradientUnits="userSpaceOnUse"
       x1="53.136948"
       y1="159.09175"
       x2="93.970062"
       y2="159.09175" />
    <linearGradient
       inkscape:collect="always"
       xlink:href="#linearGradient920"
       id="linearGradient937"
       gradientUnits="userSpaceOnUse"
       x1="53.136948"
       y1="159.09175"
       x2="93.970062"
       y2="159.09175" />
    <linearGradient
       inkscape:collect="always"
       xlink:href="#linearGradient920"
       id="linearGradient939"
       gradientUnits="userSpaceOnUse"
       x1="53.136948"
       y1="159.09175"
       x2="93.970062"
       y2="159.09175" />
    <linearGradient
       inkscape:collect="always"
       xlink:href="#linearGradient920"
       id="linearGradient941"
       gradientUnits="userSpaceOnUse"
       x1="53.136948"
       y1="159.09175"
       x2="93.970062"
       y2="159.09175" />
    <linearGradient
       inkscape:collect="always"
       xlink:href="#linearGradient920"
       id="linearGradient943"
       gradientUnits="userSpaceOnUse"
       x1="53.136948"
       y1="159.09175"
       x2="93.970062"
       y2="159.09175" />
    <linearGradient
       inkscape:collect="always"
       xlink:href="#linearGradient920"
       id="linearGradient945"
       gradientUnits="userSpaceOnUse"
       x1="53.136948"
       y1="159.09175"
       x2="93.970062"
       y2="159.09175" />
  </defs>
  <sodipodi:namedview
     id="base"
     pagecolor="#ffffff"
     bordercolor="#666666"
     borderopacity="1.0"
     inkscape:pageopacity="0.0"
     inkscape:pageshadow="2"
     inkscape:zoom="4"
     inkscape:cx="102.99213"
     inkscape:cy="20.094215"
     inkscape:document-units="mm"
     inkscape:current-layer="layer1"
     showgrid="false"
     inkscape:window-width="1536"
     inkscape:window-height="801"
     inkscape:window-x="-8"
     inkscape:window-y="-8"
     inkscape:window-maximized="1" />
  <metadata
     id="metadata5">
    <rdf:RDF>
      <cc:Work
         rdf:about="">
        <dc:format>image/svg+xml</dc:format>
        <dc:type
           rdf:resource="http://purl.org/dc/dcmitype/StillImage" />
        <dc:title></dc:title>
      </cc:Work>
    </rdf:RDF>
  </metadata>
  <g
     inkscape:label="Layer 1"
     inkscape:groupmode="layer"
     id="layer1"
     transform="translate(-53.136949,-149.65094)">
    <g
       id="g914"
       style="fill:url(#linearGradient922);fill-opacity:1;fill-rule:nonzero"
       transform="matrix(0.76826399,0,0,0.76826399,12.313744,34.679506)">
      <path
         d="m 54.962221,162.56343 q -0.74295,0 -1.119011,-0.27517 -0.366889,-0.27516 -0.366889,-0.84384 0,-0.40358 0.08255,-0.85302 l 0.339372,-1.86196 h -0.761294 l 0.137583,-0.87136 0.843845,-0.22013 0.403577,-1.37584 h 1.07315 l -0.220133,1.37584 h 1.1557 l -0.1651,1.09149 h -1.164872 l -0.293511,1.87114 q -0.0092,0.0367 -0.03669,0.20178 -0.02752,0.15593 -0.02752,0.266 0,0.21096 0.110067,0.31185 0.110067,0.1009 0.357717,0.11924 l 0.559505,0.055 -0.1651,1.00894 z"
         style="font-style:italic;font-variant:normal;font-weight:bold;font-stretch:normal;font-size:9.17222214px;line-height:1.25;font-family:Exo;-inkscape-font-specification:'Exo, Bold Italic';font-variant-ligatures:normal;font-variant-caps:normal;font-variant-numeric:normal;font-feature-settings:normal;text-align:start;letter-spacing:0px;word-spacing:0px;writing-mode:lr-tb;text-anchor:start;fill:url(#linearGradient929);fill-opacity:1;fill-rule:nonzero;stroke:none;stroke-width:0.26458332"
         id="path851"
         inkscape:connector-curvature="0" />
      <path
         d="m 58.045951,162.61846 q -0.623711,0 -0.926395,-0.30268 -0.293511,-0.30268 -0.293511,-0.85302 0,-0.30268 0.04586,-0.59619 l 0.513645,-3.22862 h 1.357489 l -0.476956,3.06352 q -0.01834,0.12841 -0.01834,0.20179 0,0.4953 0.57785,0.4953 0.311855,0 0.568677,-0.1009 0.265995,-0.10089 0.541162,-0.30268 l 0.531988,-3.35703 h 1.357489 l -0.770466,4.92548 h -1.210734 l -0.07338,-0.50447 q -0.431095,0.29351 -0.807156,0.43109 -0.376061,0.12841 -0.917222,0.12841 z"
         style="font-style:italic;font-variant:normal;font-weight:bold;font-stretch:normal;font-size:9.17222214px;line-height:1.25;font-family:Exo;-inkscape-font-specification:'Exo, Bold Italic';font-variant-ligatures:normal;font-variant-caps:normal;font-variant-numeric:normal;font-feature-settings:normal;text-align:start;letter-spacing:0px;word-spacing:0px;writing-mode:lr-tb;text-anchor:start;fill:url(#linearGradient931);fill-opacity:1;fill-rule:nonzero;stroke:none;stroke-width:0.26458332"
         id="path853"
         inkscape:connector-curvature="0" />
      <path
         d="m 62.814073,157.63795 h 1.210733 l 0.05503,0.63288 q 0.302683,-0.32103 0.623711,-0.50447 0.3302,-0.18345 0.724605,-0.18345 0.311856,0 0.4953,0.055 l -0.210961,1.35749 q -0.348544,-0.0183 -0.568678,-0.0183 -0.376061,0 -0.697089,0.11007 -0.311855,0.11007 -0.541161,0.28434 l -0.504472,3.19193 H 62.03443 Z"
         style="font-style:italic;font-variant:normal;font-weight:bold;font-stretch:normal;font-size:9.17222214px;line-height:1.25;font-family:Exo;-inkscape-font-specification:'Exo, Bold Italic';font-variant-ligatures:normal;font-variant-caps:normal;font-variant-numeric:normal;font-feature-settings:normal;text-align:start;letter-spacing:0px;word-spacing:0px;writing-mode:lr-tb;text-anchor:start;fill:url(#linearGradient933);fill-opacity:1;fill-rule:nonzero;stroke:none;stroke-width:0.26458332"
         id="path855"
         inkscape:connector-curvature="0" />
      <path
         d="m 68.802818,162.61846 q -0.421923,0 -0.816328,-0.14675 -0.394406,-0.14676 -0.6604,-0.37606 l -0.238478,0.46778 h -1.201561 l 1.109839,-6.9984 h 1.357489 l -0.376061,2.38477 q 0.311855,-0.1651 0.669572,-0.26599 0.366889,-0.1009 0.632883,-0.1009 0.724606,0 1.137356,0.44944 0.41275,0.44944 0.41275,1.27494 0,0.30269 -0.119239,1.13736 -0.1651,1.03646 -0.6604,1.60514 -0.4953,0.56867 -1.247422,0.56867 z m -0.421923,-1.09149 q 0.421923,0 0.669573,-0.3302 0.256822,-0.33937 0.366888,-1.10984 0.04586,-0.36689 0.04586,-0.56868 0,-0.84384 -0.632884,-0.84384 -0.238478,0 -0.513644,0.0734 -0.265995,0.0642 -0.4953,0.17427 l -0.357717,2.3114 q 0.192617,0.14675 0.403578,0.22013 0.210961,0.0734 0.513644,0.0734 z"
         style="font-style:italic;font-variant:normal;font-weight:bold;font-stretch:normal;font-size:9.17222214px;line-height:1.25;font-family:Exo;-inkscape-font-specification:'Exo, Bold Italic';font-variant-ligatures:normal;font-variant-caps:normal;font-variant-numeric:normal;font-feature-settings:normal;text-align:start;letter-spacing:0px;word-spacing:0px;writing-mode:lr-tb;text-anchor:start;fill:url(#linearGradient935);fill-opacity:1;fill-rule:nonzero;stroke:none;stroke-width:0.26458332"
         id="path857"
         inkscape:connector-curvature="0" />
      <path
         d="m 73.334611,162.61846 q -1.935339,0 -1.935339,-1.7152 0,-0.46778 0.07338,-0.93557 0.155927,-0.97225 0.467783,-1.4859 0.311856,-0.51364 0.8255,-0.70626 0.513644,-0.19262 1.357489,-0.19262 0.770467,0 1.183217,0.19262 0.421922,0.19262 0.587022,0.57785 0.1651,0.38523 0.1651,1.02729 0,0.44944 -0.08255,0.9906 -0.137584,0.88971 -0.458611,1.37583 -0.311856,0.48613 -0.834673,0.67875 -0.513644,0.19261 -1.348316,0.19261 z m 0.146755,-1.09149 q 0.366889,0 0.57785,-0.11007 0.210961,-0.11006 0.339373,-0.3944 0.128411,-0.28434 0.220133,-0.85302 0.08255,-0.62371 0.08255,-0.85302 0,-0.36688 -0.174272,-0.51364 -0.1651,-0.15593 -0.57785,-0.15593 -0.376061,0 -0.587023,0.12841 -0.210961,0.11924 -0.339372,0.44027 -0.128411,0.32103 -0.220133,0.95391 -0.05503,0.39441 -0.05503,0.66957 0,0.39441 0.174272,0.54116 0.183444,0.14676 0.559505,0.14676 z"
         style="font-style:italic;font-variant:normal;font-weight:bold;font-stretch:normal;font-size:9.17222214px;line-height:1.25;font-family:Exo;-inkscape-font-specification:'Exo, Bold Italic';font-variant-ligatures:normal;font-variant-caps:normal;font-variant-numeric:normal;font-feature-settings:normal;text-align:start;letter-spacing:0px;word-spacing:0px;writing-mode:lr-tb;text-anchor:start;fill:url(#linearGradient937);fill-opacity:1;fill-rule:nonzero;stroke:none;stroke-width:0.26458332"
         id="path859"
         inkscape:connector-curvature="0" />
      <path
         d="m 78.179551,162.56343 q -0.715433,0 -1.100666,-0.29351 -0.376061,-0.30268 -0.376061,-0.80716 0,-0.37606 0.03669,-0.60536 l 0.843844,-5.29237 h 1.357489 l -0.770467,4.82458 q -0.07338,0.55034 -0.07338,0.66958 0,0.23847 0.110067,0.33937 0.119239,0.10089 0.366889,0.12841 l 0.348544,0.055 -0.155927,0.98143 z"
         style="font-style:italic;font-variant:normal;font-weight:bold;font-stretch:normal;font-size:9.17222214px;line-height:1.25;font-family:Exo;-inkscape-font-specification:'Exo, Bold Italic';font-variant-ligatures:normal;font-variant-caps:normal;font-variant-numeric:normal;font-feature-settings:normal;text-align:start;letter-spacing:0px;word-spacing:0px;writing-mode:lr-tb;text-anchor:start;fill:url(#linearGradient939);fill-opacity:1;fill-rule:nonzero;stroke:none;stroke-width:0.26458332"
         id="path861"
         inkscape:connector-curvature="0" />
      <path
         d="m 80.851103,162.61846 q -0.623711,0 -0.926394,-0.30268 -0.293511,-0.30268 -0.293511,-0.85302 0,-0.30268 0.04586,-0.59619 l 0.513644,-3.22862 h 1.357489 l -0.476956,3.06352 q -0.01834,0.12841 -0.01834,0.20179 0,0.4953 0.57785,0.4953 0.311856,0 0.568678,-0.1009 0.265994,-0.10089 0.541161,-0.30268 l 0.531989,-3.35703 h 1.357489 l -0.770467,4.92548 h -1.210733 l -0.07338,-0.50447 q -0.431095,0.29351 -0.807156,0.43109 -0.376061,0.12841 -0.917222,0.12841 z"
         style="font-style:italic;font-variant:normal;font-weight:bold;font-stretch:normal;font-size:9.17222214px;line-height:1.25;font-family:Exo;-inkscape-font-specification:'Exo, Bold Italic';font-variant-ligatures:normal;font-variant-caps:normal;font-variant-numeric:normal;font-feature-settings:normal;text-align:start;letter-spacing:0px;word-spacing:0px;writing-mode:lr-tb;text-anchor:start;fill:url(#linearGradient941);fill-opacity:1;fill-rule:nonzero;stroke:none;stroke-width:0.26458332"
         id="path863"
         inkscape:connector-curvature="0" />
      <path
         d="m 86.82996,162.61846 q -0.880533,0 -1.339144,-0.42192 -0.458611,-0.43109 -0.458611,-1.44921 0,-0.30268 0.09172,-0.87136 0.348544,-2.29306 2.283883,-2.29306 0.678745,0 1.687689,0.25683 l -0.128411,0.78881 h -1.247422 q -0.559506,0 -0.853017,0.35771 -0.293511,0.34855 -0.421922,1.11902 -0.05503,0.38523 -0.05503,0.52281 0,0.51365 0.210962,0.74295 0.220133,0.22014 0.669572,0.22014 h 1.311627 l -0.119238,0.77046 q -0.733778,0.25682 -1.632656,0.25682 z"
         style="font-style:italic;font-variant:normal;font-weight:bold;font-stretch:normal;font-size:9.17222214px;line-height:1.25;font-family:Exo;-inkscape-font-specification:'Exo, Bold Italic';font-variant-ligatures:normal;font-variant-caps:normal;font-variant-numeric:normal;font-feature-settings:normal;text-align:start;letter-spacing:0px;word-spacing:0px;writing-mode:lr-tb;text-anchor:start;fill:url(#linearGradient943);fill-opacity:1;fill-rule:nonzero;stroke:none;stroke-width:0.26458332"
         id="path865"
         inkscape:connector-curvature="0" />
      <path
         sodipodi:nodetypes="ccccccccccccc"
         d="m 90.302649,155.56503 h 1.357489 l -0.593674,3.66363 c 1.039195,-0.23472 1.586684,-0.48906 1.931472,-1.41615 0.219699,0.41788 0.661201,0.66699 1.042711,0.69526 -0.301389,0.57027 -0.967832,1.13449 -1.454115,1.39572 l 1.293283,2.65994 h -1.394177 l -1.036462,-2.24719 c -0.207903,0.055 -0.394405,0.0825 -0.559505,0.0825 l -0.339372,2.16464 H 89.19281 Z"
         style="font-style:italic;font-variant:normal;font-weight:bold;font-stretch:normal;font-size:9.17222214px;line-height:1.25;font-family:Exo;-inkscape-font-specification:'Exo, Bold Italic';font-variant-ligatures:normal;font-variant-caps:normal;font-variant-numeric:normal;font-feature-settings:normal;text-align:start;letter-spacing:0px;word-spacing:0px;writing-mode:lr-tb;text-anchor:start;fill:url(#linearGradient945);fill-opacity:1;fill-rule:nonzero;stroke:none;stroke-width:0.26458332"
         id="path867"
         inkscape:connector-curvature="0" />
    </g>
    <path
       style="fill:#04d66b;fill-opacity:1;stroke-width:0.01562234"
       d="m 85.921675,156.36454 c -0.06013,-0.0203 -0.149376,-0.0599 -0.198279,-0.0884 -0.107878,-0.0627 -0.268716,-0.19717 -0.298832,-0.2497 l -0.02196,-0.0384 -0.02746,-0.002 c -0.01511,-7.6e-4 -0.05457,0.009 -0.08784,0.0195 -0.08019,0.0282 -0.275946,0.0528 -0.372123,0.0471 -0.04248,-0.002 -0.130708,-0.0186 -0.196046,-0.0356 l -0.118774,-0.031 -0.143185,-0.0808 -0.14319,-0.0808 -0.112,-0.1262 -0.112017,-0.12622 -0.05725,-0.1359 -0.05725,-0.1359 -0.01765,-0.11844 -0.01765,-0.11842 0.01511,-0.1243 0.01511,-0.1243 0.04803,-0.11886 0.04803,-0.1189 0.06798,-0.0946 0.06798,-0.0946 0.09503,-0.0802 0.09502,-0.0802 0.121001,-0.0608 c 0.06656,-0.0334 0.449957,-0.24071 0.852006,-0.46067 0.402056,-0.21995 0.737964,-0.39951 0.746461,-0.399 0.0085,5.1e-4 0.209062,0.3276 0.445706,0.72686 0.236631,0.39926 0.458971,0.76993 0.494064,0.82369 0.03512,0.0538 0.0843,0.14755 0.109356,0.20842 l 0.0455,0.11067 0.01909,0.11877 0.01917,0.11878 -0.01734,0.14116 -0.01742,0.14113 -0.03688,0.0882 c -0.0202,0.0485 -0.06256,0.13024 -0.09399,0.18164 l -0.05706,0.0934 -0.10881,0.0959 -0.108811,0.0959 -0.09007,0.0466 c -0.04948,0.0257 -0.142626,0.0617 -0.206864,0.0802 l -0.116797,0.0336 -0.17966,-0.006 -0.179653,-0.006 z m 2.25331,-1.15019 c -0.115062,-0.0254 -0.216996,-0.0678 -0.339794,-0.14147 l -0.102409,-0.0615 -0.102948,-0.10736 -0.102943,-0.10737 -0.06673,-0.12388 c -0.03673,-0.0682 -0.260928,-0.4513 -0.498279,-0.85149 l -0.431569,-0.72762 0.02217,-0.018 c 0.01221,-0.01 0.327878,-0.18493 0.70156,-0.38892 0.373669,-0.20399 0.73589,-0.40562 0.804916,-0.44807 0.06903,-0.0425 0.171365,-0.0948 0.227428,-0.11628 l 0.101912,-0.0392 0.132155,-0.0186 0.13215,-0.0186 0.124819,0.0165 0.124803,0.0165 0.107194,0.0398 c 0.05895,0.022 0.151272,0.0677 0.205213,0.10156 l 0.09805,0.0617 0.117566,0.13375 0.117576,0.13375 0.05055,0.12038 0.05055,0.12038 0.01913,0.11069 0.01913,0.11069 -0.01651,0.1477 -0.01651,0.14769 -0.04071,0.0993 c -0.05279,0.1289 -0.140177,0.25431 -0.24178,0.3469 l -0.08131,0.0741 -0.0015,0.023 c -7.53e-4,0.0127 0.01053,0.0502 0.02512,0.0836 0.01459,0.0332 0.0355,0.10646 0.04671,0.16256 l 0.02029,0.10199 -0.0179,0.1711 -0.0179,0.17107 -0.0408,0.0971 -0.0408,0.097 -0.08356,0.11017 -0.08355,0.11016 -0.08532,0.0661 -0.08532,0.0662 -0.120593,0.0539 -0.12059,0.0539 -0.09764,0.0191 c -0.05366,0.0105 -0.149296,0.0191 -0.21242,0.0191 l -0.11477,8e-5 z m -4.768987,-1.24651 c -0.134797,-0.0383 -0.252659,-0.0944 -0.352225,-0.1679 l -0.08776,-0.0646 -0.09493,-0.11413 -0.09492,-0.11412 -0.04535,-0.0993 -0.04535,-0.0992 -0.02357,-0.1223 -0.02357,-0.12228 0.0073,-0.11835 0.0073,-0.11834 0.02902,-0.097 0.0291,-0.097 0.05353,-0.0936 c 0.02947,-0.0515 0.08469,-0.1293 0.122599,-0.17285 l 0.06906,-0.0793 0.09431,-0.0653 0.09434,-0.0654 -0.0397,-0.0919 c -0.02177,-0.0505 -0.04876,-0.13758 -0.05988,-0.19351 l -0.02026,-0.10168 0.0079,-0.13254 0.0079,-0.13256 0.03242,-0.0998 0.03242,-0.0998 0.06279,-0.10581 0.06279,-0.1058 0.126943,-0.11238 0.126952,-0.11237 0.136451,-0.0564 0.136451,-0.0564 0.116325,-0.0176 0.116317,-0.0176 0.147655,0.0173 0.14764,0.0173 0.124387,0.0478 0.124384,0.0479 0.110461,0.0819 0.110446,0.0819 0.07556,0.0934 c 0.0415,0.0514 0.106123,0.14977 0.143466,0.21858 0.03739,0.0689 0.264568,0.45684 0.504923,0.8623 0.240348,0.40546 0.435311,0.73848 0.433215,0.74006 -0.0024,0.002 -0.396948,0.21792 -0.877471,0.4808 l -0.873686,0.47798 -0.114388,0.0445 -0.114403,0.0445 -0.108228,0.0164 -0.108252,0.0163 -0.10911,-0.007 -0.109134,-0.007 -0.09234,-0.0262 z m 2.377089,-2.08353 -0.49709,-0.83823 -0.03484,-0.0973 c -0.01913,-0.0535 -0.0422,-0.13645 -0.0512,-0.18432 l -0.01636,-0.0871 0.0089,-0.14031 0.0089,-0.14034 0.03326,-0.092 c 0.01833,-0.0506 0.06181,-0.13952 0.09663,-0.19769 l 0.06342,-0.10578 0.108238,-0.0953 0.108225,-0.0953 0.09077,-0.0467 c 0.04993,-0.0256 0.143326,-0.0616 0.207554,-0.0799 l 0.11678,-0.0333 0.158508,0.002 0.158508,0.002 0.117748,0.0336 0.117741,0.0336 0.121447,0.0701 0.121447,0.0701 0.09486,0.1 0.09487,0.1 0.07857,-0.0284 c 0.04327,-0.0157 0.123612,-0.0361 0.178681,-0.0458 l 0.100138,-0.0173 0.116959,0.007 0.116965,0.007 0.107346,0.0295 0.107336,0.0295 0.106481,0.059 c 0.05855,0.0324 0.148047,0.0945 0.198848,0.1379 l 0.09235,0.0789 0.06673,0.10082 c 0.0886,0.13374 0.129744,0.23201 0.157701,0.37673 l 0.02318,0.11975 -0.0067,0.11199 -0.0067,0.11196 -0.03848,0.11992 -0.03848,0.11991 -0.06335,0.0995 -0.06335,0.0995 -0.119303,0.10555 -0.119304,0.10557 -0.85224,0.46643 c -0.468726,0.25656 -0.857311,0.46615 -0.863507,0.46578 -0.0069,-4.2e-4 -0.234965,-0.37786 -0.508374,-0.83888 z"
       id="path830"
       inkscape:connector-curvature="0" />
  </g>
</svg>
